# xmcd
#
# Track frame offsets:
#	150
#	15562
#	32043
#	56693
#	74072
#	89472
#	111965
#	133110
#	150212
#	164575
#	182871
#
# Disc length: 2699 seconds
# Revision: 0
# Processed by: cddbd v1.5.2PL0 Copyright (c) Steve Scherf et al.
# Submitted via: dBpowerAMP V12.0
#
DISCID=960a890b
DTITLE=Shemekia Copeland - 33 1/3
DYEAR=2012
DGENRE=Blues Female
TTITLE0=Lemon Pie
TTITLE1=Can't Let Go
TTITLE2=Ain't Gonna Be Your Tattoo
TTITLE3=Somebody Else's Jesus
TTITLE4=A Woman
TTITLE5=I Sing the Blues
TTITLE6=Mississippi Mud
TTITLE7=One More Time
TTITLE8=Ain't That Good News
TTITLE9=Hangin' Up
TTITLE10=I'll Be Your Baby Tonight
EXTD=
EXTT0=
EXTT1=
EXTT2=
EXTT3=
EXTT4=
EXTT5=
EXTT6=
EXTT7=
EXTT8=
EXTT9=
EXTT10=
PLAYORDER=
